<?xml version="1.0" encoding="utf-8"?>
<!-- Generator: Adobe Illustrator 28.2.0, SVG Export Plug-In . SVG Version: 6.00 Build 0)  -->
<svg version="1.1" id="Layer_1" xmlns="http://www.w3.org/2000/svg" xmlns:xlink="http://www.w3.org/1999/xlink" x="0px" y="0px"
	 viewBox="0 0 841.9 153.5" style="enable-background:new 0 0 841.9 153.5;" xml:space="preserve">
<style type="text/css">
	.st0{fill:#FFF6D8;}
</style>
<g>
	<path class="st0" d="M91.4,134.1c-9.1,0-17.6-1.2-25.4-3.7c-9,7.4-15.7,12.6-20.2,15.5c-8.3,5.2-16.8,7.8-25.5,7.8
		c-9.9,0-16.2-2.8-19.1-8.6c-0.8-1.7-1.2-3.4-1.2-5.1c0-1.7,0.3-3,0.9-4c0.6-1,1.3-1.8,2.1-2.4c1.7-1.2,3.7-1.8,6.1-1.8
		c3.2,0,4.8,1.4,4.8,4.3c0,1.3-0.5,2.4-1.6,3.3c-1.1,0.9-2.5,1.4-4.3,1.4s-3.2-0.3-4.1-1v0.7c0,7,5.8,10.6,17.3,10.6
		c8,0,17.1-3.5,27.2-10.6l14.3-11.2c-9.1-3.4-16.4-8.2-21.8-14.4c-5.3-5.9-8.1-12.4-8.5-19.5c-0.4-7,1.9-12.9,6.9-17.9
		c5.3-5.2,12.4-7.8,21.3-7.8c12.5,0,23,5.3,31.5,16c2.6,3.3,4.7,6.8,6.5,10.5c20.6-19.7,34-32.4,40.4-38.1l15.8-13.6
		c21.3-17.5,36.9-26.2,47-26.2c1.2,0,1.7,0.2,1.7,0.6c0,0.4-0.5,0.9-1.6,1.2c-1.1,0.4-2.2,1.2-3.5,2.5c-1.3,1.3-3.1,3.4-5.6,6.4
		l-9.4,12l-65.1,86.5c17.9-5.3,31.8-14.8,41.8-28.5c3.2-4.4,5.3-8,6.4-11c1.5-3.9,2.4-5.9,2.7-5.9c0.2,0,0.5,0.3,0.9,0.8
		c0.4,0.5,0.6,1.7,0.5,3.5c-0.1,1.8-0.6,3.8-1.4,6.2c-0.8,2.4-1.9,4.7-3.2,6.9c-2.1,3.7-5.6,7.8-10.5,12.4
		c-9.8,9.5-23.3,16.1-40.4,19.6l-16.4,21.7l-6.2-0.4c-2.1-0.1-3.7-0.2-4.9-0.2c-1.2,0-2.2,0.1-3,0.2l-2.7,0.4l14.2-17.6
		c0.2-0.3,0.4-0.6,0.6-0.9c0.2-0.3,0.4-0.6,0.5-0.9C95.4,134.1,93.4,134.1,91.4,134.1z M65,127.4c12.5-11.1,23-20.9,31.5-29.1
		c-5.3-12.1-13.4-20.1-24.3-23.8c-3.7-1.2-7.2-1.8-10.7-1.8c-3.5,0-6.6,0.6-9.3,1.9c-2.7,1.2-5.1,2.9-7.2,4.9
		c-4.4,4.4-6.6,9.7-6.6,15.8c0,10.7,5,19.5,15,26.4C56.7,124,60.5,125.9,65,127.4z M68.3,128.5c7,2,14.9,3,23.6,3
		c2.2,0,4.5-0.1,6.7-0.3c1.5-3.8,2.2-7.4,2.2-11c0-6.5-1.1-12.8-3.2-18.7C83.3,115.1,73.5,124.1,68.3,128.5z M100,99.3
		c2.6,6.7,3.9,12.5,3.9,17.3c0,4.8-0.4,8.6-1.2,11.3l35.7-43.1c23.5-27.4,38.1-44,43.7-50c5.6-6,9.8-10.2,12.5-12.7l-6.4,2.7
		c-8.6,3.8-21,12.6-37.1,26.5L131,69.5L100,99.3z"/>
	<path class="st0" d="M201.7,127.1c-15.7,17.6-28.2,26.3-37.5,26.3c-8.1,0-12.2-4.2-12.2-12.6c0-9.7,4-19.2,12-28.3
		c14.4-16.8,29.6-25.2,45.6-25.2c4.8,0,8.4,1.5,10.7,4.4c0.7,1,1.1,1.9,1.1,2.7c0,0.8,0,1.4,0,1.6c0,0.2,0,0.5,0,0.8L269,28.5
		L289.2,0c2.4,1,4.6,1.5,6.6,1.5c2,0,3.9-0.1,5.6-0.3l-91.3,128c-3.7,5-6.5,9-8.4,11.9c-1.9,2.9-2.8,5.2-2.8,6.9
		c0,1.7,0.8,2.5,2.4,2.5c6.2,0,13.3-2.9,21.1-8.6c7.2-5.3,15.2-13.1,23.7-23.6c1.6-2,2.7-3.4,3.4-4l2.1,1.6
		c-0.7,0.7-1.9,2.1-3.7,4.2c-1.8,2.1-3.9,4.5-6.5,7.3c-2.6,2.8-5.5,5.7-8.7,8.7c-3.2,3.1-6.7,5.9-10.3,8.5
		c-8.3,5.9-15.6,8.8-21.9,8.8c-6.3,0-9.4-2.1-9.4-6.2c0.1-4.1,3.9-10.7,11.4-19.7L201.7,127.1z M173.8,119.1
		c-9.2,11.1-13.7,20.1-13.7,26.7c0,3.2,1.6,4.8,4.8,4.8c5.7,0,13.6-4.6,23.8-13.9l7.9-7.6c4.5-4.5,8.3-8.8,11.1-12.9l8.6-12.2
		c1.5-2.9,2.2-5.5,2.2-7.6c0-2.1-0.8-3.6-2.3-4.6c-1.5-0.9-3.1-1.4-4.8-1.4c-1.7,0-3.8,0.6-6.3,1.7c-2.5,1.1-5.4,2.9-8.6,5.2
		C189.5,102.3,182,109.6,173.8,119.1z"/>
	<path class="st0" d="M287.1,153.5c-6.4,0-9.6-2-9.6-6c0-3.3,1.9-7.4,5.6-12.3l6.1-7.7l-1-0.4c-10.8,13.3-20.9,21.6-30.5,25
		c-2.6,0.9-4.9,1.3-6.8,1.3c-7.9,0-11.8-4.2-11.8-12.6c0-9.9,3.9-19.3,11.8-28.3C262.6,99,274.3,91,286.1,88.5
		c3.5-0.7,6.5-1.1,9-1.1s4.5,0.2,5.9,0.5c1.4,0.4,2.7,0.8,3.8,1.5c2.3,1.5,3.5,3.3,3.5,5.4c0,2.1-0.4,4.2-1.2,6.1l9.4-11.6
		c1.7,0.5,3.3,0.8,4.8,0.8c3.8,0,6.5-0.1,8.2-0.4l-32.4,39c-7.7,9-11.5,15.3-11.5,18.9c0,2.1,1.2,3.1,3.7,3.1c2.4,0,5.2-0.7,8.4-2.2
		c3.2-1.5,6.3-3.4,9.5-5.7c3.1-2.3,6.2-4.9,9.2-7.7c3-2.8,5.7-5.6,8.3-8.3c2.5-2.7,4.8-5.2,6.7-7.5l4.6-5.2l2,1.6l-4.9,5.6
		C314.5,142.8,299.2,153.5,287.1,153.5z M260.5,118.9c-9,11-13.5,19.9-13.5,26.9c0,3.2,1.4,4.8,4.3,4.8c9.4,0,22.8-10.3,40.5-31
		l8.1-9.7c3.8-5.8,5.8-10.1,5.8-12.7c0-4.5-2.2-6.7-6.7-6.7c-6.1,0-14.8,5.2-26.2,15.6C268.7,109.6,264.7,113.9,260.5,118.9z"/>
	<path class="st0" d="M405.3,136.6c0,1.4-0.5,2.6-1.6,3.6s-2.5,1.4-4.1,1.4c-1.7,0-3-0.3-4.1-1v0.5c0,2.8,1.6,5.2,4.8,7.2
		c3.2,1.9,7.1,2.9,11.8,2.9c4.6,0,8.9-0.8,12.9-2.4c3.9-1.6,7.6-3.8,11.1-6.6c3.5-2.8,6.7-6.1,9.8-9.8c3.1-3.8,6.1-7.8,9-12.1
		c2.9-4.3,5.7-8.8,8.5-13.5l10.5-16.9c-15.6-0.5-28.2-3.6-37.8-9.2c-10.1-5.9-14.8-13.3-14.1-22.3c0.3-5.7,2.4-11,6.2-15.8
		c3.8-4.8,8.8-9,15-12.6c13.1-7.5,28.7-11.2,46.6-11.2c7.4,0,12.8,0.9,16.3,2.6c1,0.5,1.4,0.9,1.4,1.3c0,0.4-0.3,0.5-0.9,0.5
		c-0.6,0-1.1,0-1.5-0.1c-0.4-0.1-1.3-0.3-2.5-0.5c-4.4-1-8.9-1.5-13.5-1.5c-4.5,0-9.3,0.4-14.2,1.3s-9.6,2.1-14.1,3.7
		c-4.5,1.6-8.7,3.6-12.5,5.9c-3.9,2.3-7.3,4.9-10.1,7.8c-6.2,6.3-9.4,13.2-9.8,20.7c-0.4,6.5,3.2,12.4,11,17.6
		c8.9,6,20.9,9.3,36,9.7c22.2-35.1,42.6-56.7,61-64.9c6-2.6,11.4-3.9,16.2-3.9c9.5,0,14,4,13.6,11.9c-0.4,6.8-4.1,14.4-11.1,22.8
		c-11.6,13.9-26.7,24.2-45.4,30.9c-6.5,2.4-13.2,4-20.1,4.9l-11.1,16.4c-17.2,25-33.8,40.1-49.8,45.5c-4.8,1.6-9.4,2.4-13.8,2.4
		s-8-0.3-10.7-1c-2.7-0.7-5-1.6-7-2.8c-3.8-2.5-5.8-5.6-5.8-9.3c0-4,2-6.5,6-7.6c1-0.3,2.1-0.4,3.1-0.4c1,0,2.1,0.4,3.1,1.1
		C404.8,134.1,405.3,135.1,405.3,136.6z M491.5,86.5c17.9-3,34-10.8,48.2-23.3c8.5-7.5,14.6-15,18.3-22.6c4-8.4,4.4-14.3,1-17.7
		c-1.3-1.3-3.4-1.9-6.5-1.8c-3,0.1-6.6,1.3-10.8,3.7c-4.2,2.4-8.5,6-13.1,10.6c-8.6,8.6-18.7,22.1-30.3,40.5
		C494.6,81.6,492.4,85.1,491.5,86.5z"/>
	<path class="st0" d="M504.8,147.7c0,1.9,1.5,2.9,4.6,3c3.1,0.1,6.2-0.6,9.3-2c3.1-1.4,6.2-3.2,9.3-5.4c3.1-2.2,6.1-4.6,8.9-7.4
		c2.9-2.7,5.6-5.4,8.1-8.1c2.5-2.7,4.7-5.2,6.7-7.6l5-6l2.1,1.6l-5,5.8c-17.9,21.2-32.9,31.8-45.1,31.8c-3.5,0-6.2-0.7-7.9-2.1
		c-1.8-1.4-2.6-2.9-2.6-4.6c0-1.7,0.1-3,0.2-4.1c0.2-1.1,0.5-2.3,1-3.6c0.5-1.3,1.3-2.9,2.3-4.7c1-1.8,2.3-4,4-6.5l15-21.6
		l24.8-34.9h-7.6c-1.9,0-2.9-0.5-2.9-1.4c0-0.9,1.2-1.4,3.7-1.4h8.7l17.8-25c4.5,0.7,8.9,0.7,13.4,0l-18.5,25h24.8
		c1.8,0,2.7,0.5,2.7,1.4c0,0.9-0.8,1.4-2.4,1.4h-27.2L518,125.4c-6.9,9.7-10.8,15.6-11.8,17.9C505.3,145.5,504.8,147,504.8,147.7z"
		/>
	<path class="st0" d="M548.2,147.6c0,2.3,1.5,3.5,4.6,3.5c4.3,0,8.9-1.6,13.8-4.9c10.6-7.1,21.7-17.7,33.2-31.9L621.7,88
		c3.1,0.4,5.9,0.6,8.4,0.6s4.6-0.1,6.2-0.3l-9.4,10.9l-34,41.4c-2.2,2.8-3.4,5-3.4,6.7c0,2.3,1.5,3.5,4.6,3.5c3.1,0,6.3-0.8,9.6-2.5
		c3.3-1.6,6.6-3.7,9.9-6.2c3.3-2.5,6.5-5.2,9.7-8.2c3.1-3,6-5.8,8.6-8.5l10.1-11.1l1.9,1.6l-3.7,4.2c-1.9,2.1-4.1,4.5-6.8,7.3
		l-8.9,8.7c-12.2,11.5-22.4,17.3-30.5,17.3c-2.6,0-4.8-0.7-6.5-2.2c-1.7-1.4-2.6-3.4-2.7-5.8c-0.1-4.7,1.5-10,4.9-15.9
		c-14.7,15.9-27.2,23.8-37.5,23.8c-5.8,0-9.4-2-11.1-6.2c-0.4-1.2-0.7-2.6-0.8-4.4c-0.1-1.8,0.4-3.9,1.3-6.4
		c0.9-2.5,2.3-5.2,4.2-8.1c1.9-2.9,4.1-6.1,6.8-9.5l17.3-20.9c2.7-3.3,5.5-6.6,8.6-9.9c2.5,0.4,4.5,0.6,6.1,0.6h3.3
		c2.8,0,4.5-0.1,5.3-0.3c-7.5,8.2-12.7,14.1-15.8,17.8l-19.1,23C551.4,136.9,548.1,143.1,548.2,147.6z"/>
	<path class="st0" d="M678,127.1c-15.7,17.6-28.2,26.3-37.5,26.3c-8.1,0-12.2-4.2-12.2-12.6c0-9.7,4-19.2,12-28.3
		c14.4-16.8,29.6-25.2,45.6-25.2c4.8,0,8.4,1.5,10.7,4.4c0.7,1,1.1,1.9,1.1,2.7c0,0.8,0,1.4,0,1.6c0,0.2,0,0.5,0,0.8l47.7-68.4
		L765.4,0c2.4,1,4.6,1.5,6.6,1.5c2,0,3.9-0.1,5.6-0.3l-91.3,128c-3.7,5-6.5,9-8.4,11.9c-1.9,2.9-2.8,5.2-2.8,6.9
		c0,1.7,0.8,2.5,2.4,2.5c6.2,0,13.3-2.9,21.1-8.6c7.2-5.3,15.2-13.1,23.7-23.6c1.6-2,2.7-3.4,3.4-4l2.1,1.6
		c-0.7,0.7-1.9,2.1-3.7,4.2c-1.8,2.1-3.9,4.5-6.5,7.3c-2.6,2.8-5.5,5.7-8.7,8.7c-3.2,3.1-6.7,5.9-10.3,8.5
		c-8.3,5.9-15.6,8.8-21.9,8.8c-6.3,0-9.4-2.1-9.4-6.2c0.1-4.1,3.9-10.7,11.4-19.7L678,127.1z M650.1,119.1
		c-9.2,11.1-13.7,20.1-13.7,26.7c0,3.2,1.6,4.8,4.8,4.8c5.7,0,13.6-4.6,23.8-13.9l7.9-7.6c4.5-4.5,8.3-8.8,11.1-12.9l8.6-12.2
		c1.5-2.9,2.2-5.5,2.2-7.6c0-2.1-0.8-3.6-2.3-4.6c-1.5-0.9-3.1-1.4-4.8-1.4c-1.7,0-3.8,0.6-6.3,1.7c-2.5,1.1-5.4,2.9-8.6,5.2
		C665.8,102.3,658.2,109.6,650.1,119.1z"/>
	<path class="st0" d="M714.9,147.7c0,2,1.9,3,5.7,3c3.8,0,7.4-0.9,10.7-2.6c3.4-1.7,6.8-3.9,10.2-6.5c3.4-2.6,6.7-5.4,9.9-8.5
		l8.6-8.6c2.6-2.7,4.7-5,6.3-7c1.7-2,2.7-3.1,3-3.4l1.9,1.7c-0.6,0.6-1.8,2-3.6,4.1c-1.8,2.1-4,4.5-6.6,7.3
		c-2.6,2.8-5.6,5.7-8.8,8.8s-6.7,5.9-10.3,8.5c-8.3,6-15.5,8.9-21.7,8.9c-4,0-7.1-0.7-9.5-2.2c-2.4-1.4-3.6-3.1-3.6-4.9
		c0-1.9,0.2-3.5,0.6-5c0.4-1.5,1.1-3.2,2.1-5.3c1-2,2.5-4.5,4.3-7.2c1.8-2.8,4.2-6.1,7.1-9.9c2.9-3.8,6.5-8.3,10.6-13.4l14.8-17.5
		c0.8,0.2,2.3,0.3,4.7,0.3h4.5c1.7,0,3-0.1,4-0.2c-21.2,25.3-33.1,39.7-35.8,43.2c-2.7,3.5-4.6,6.2-5.9,8.2
		C716,143,714.9,145.7,714.9,147.7z M775.9,66.4c-0.9,0.8-2,1.5-3.1,2s-2.5,0.7-3.9,0.7c-1.5,0-2.7-0.6-3.8-1.7
		c-1.1-1.1-1.6-2.4-1.6-3.8c0-1.4,0.3-2.7,0.8-3.7c0.5-1.1,1.2-2,2.1-2.9c1.9-1.9,3.9-2.9,6.1-2.9s3.8,0.6,4.9,1.8
		c1.1,1.2,1.6,2.5,1.6,3.9c0,1.4-0.3,2.7-0.8,3.7C777.6,64.6,776.8,65.6,775.9,66.4z"/>
	<path class="st0" d="M811.8,137.8c-2.4,0-4.1-1-5.2-2.9c-7.6,8.6-15.9,14.4-24.7,17.2c-2.9,0.9-5.8,1.3-8.6,1.3s-5.2-0.3-7.2-1
		c-2-0.6-3.6-1.5-4.9-2.7c-5.2-4.5-5.7-12.2-1.5-23.2c1.6-4.3,3.7-8.3,6.2-12c2.5-3.7,5.4-7.2,8.6-10.3c3.2-3.2,6.6-6,10.2-8.5
		c8.3-5.6,16.3-8.4,24.2-8.4c3.4,0,6.3,0.9,8.8,2.6c2.5,1.8,3.8,4.3,4,7.6c0.2,3.3,0,6.4-0.6,9.3c-0.6,2.9-1.4,5.8-2.6,8.6
		c-2.3,5.9-5.6,11.5-9.8,16.7c0.4,1.9,1.7,2.8,3.7,2.8s3.9-0.5,5.8-1.4c1.8-0.9,3.7-2.1,5.5-3.5c1.8-1.4,3.6-2.9,5.4-4.6
		c1.8-1.7,3.4-3.3,4.9-4.9l3.7-4c1-1.2,1.8-2,2.2-2.5l2.1,1.6c-0.8,0.8-1.9,1.9-3.2,3.3c-1.3,1.4-2.7,2.9-4.3,4.5l-5.1,5
		C822.7,134.8,816.9,137.8,811.8,137.8z M771.9,149.8c1,0.5,2.5,0.8,4.3,0.8c4.2,0,9.5-2.3,16-7c5-3.6,9.4-7.7,13.4-12.4v-0.4
		c0-5.4,2-9.5,6.2-12.3c1.1-0.8,2.1-1.3,3.1-1.6c3.1-6.5,4.5-11.9,4.3-16c-0.4-6.6-2.8-9.9-7.3-9.9c-7.6,0-18.2,8.5-31.8,25.6
		c-8.8,11-12.9,19.6-12.4,25.8C767.7,145.7,769.1,148.3,771.9,149.8z"/>
</g>
</svg>
