<?xml version="1.0" encoding="UTF-8"?>
<svg id="Layer_1" xmlns="http://www.w3.org/2000/svg" version="1.1" viewBox="0 0 839.11 295.51">
  <!-- Generator: Adobe Illustrator 29.4.0, SVG Export Plug-In . SVG Version: 2.1.0 Build 152)  -->
  <defs>
    <style>
      .st0 {
        fill: #5d0d29;
      }
    </style>
  </defs>
  <path class="st0" d="M778.3,291.7c-.06.02-.14.03-.21.05-.02,1.07-.1,2.17-.22,3.3,20.46,0,40.91,0,61.37-.02-.31-1.15-.44-2.36-.41-3.56-.17-.05-.37-.09-.51-.13v-12.76c0-45.05.43-90.1-.24-135.14-.23-15.3-1.74-30.9-5.22-45.77-9.57-40.84-31.82-72.44-71.02-90.27-9.64-4.38-19.6-7.49-30.47-7.45-43.42.15-86.85.04-130.27.11-3.47,0-6.93.65-11.66,1.13v292.77h-.28c.09.38.16.76.22,1.14,20.7,0,41.4-.02,62.1-.02-.19-.83-.29-1.68-.3-2.54-.21-.03-.43-.06-.62-.09V108.26c24.56,14.48,51.87,17.87,77.23,27.11,5.32,1.94,10.56,4.19,15.64,6.7,22.8,11.27,35.15,29.63,35.52,55.13.43,30.01.11,60.04.07,90.05,0,1.55-.49,3.11-.71,4.44ZM693.15,103.07c-11-2.51-22.05-5.43-32.49-9.61-16.32-6.53-24.4-19.1-23.97-37.07.34-14.51.07-29.04.07-44.34,4.07-.5,7.12-1.17,10.17-1.19,18.64-.1,37.27.05,55.91-.08,23.97-.17,41.98,10.35,54.77,30.25,11.42,17.78,16.47,37.75,19.22,58.37,1.23,9.19,1.59,18.49,2.58,30.56-27.41-19.65-57.66-20.37-86.25-26.89Z"/>
  <path class="st0" d="M244.05,293.95h-.29V2.59c-4.64-.47-8.04-1.12-11.45-1.12-42.64-.07-85.28.05-127.92-.1-10.67-.04-20.46,3.06-29.92,7.42C35.98,26.51,14.13,57.97,4.74,98.61,1.32,113.4-.17,128.93-.39,144.16c-.66,44.82-.23,89.66-.24,134.49,0,3.22,0,6.43,0,9.49.59,2.24.55,4.66-.11,6.88,19.34.01,38.69,0,58.03.02.19-1.59.44-3.17.73-4.75-.21-.96-.42-1.98-.42-3.01-.05-29.87-.36-59.75.06-89.62.36-25.38,12.49-43.65,34.88-54.86,4.99-2.5,10.13-4.74,15.36-6.67,24.9-9.2,51.71-12.57,75.84-26.98v183.31c-.24.04-.53.08-.81.12.17.82.26,1.66.27,2.5,20.3,0,40.6.02,60.91.02-.03-.38-.06-.76-.06-1.14ZM173.82,94.42c-10.26,4.16-21.11,7.06-31.91,9.56-28.08,6.49-57.78,7.21-84.7,26.76.97-12.01,1.33-21.27,2.53-30.41,2.7-20.52,7.66-40.39,18.87-58.09,12.56-19.81,30.24-30.28,53.78-30.11,18.3.13,36.6-.02,54.9.08,3,.02,5.99.69,9.99,1.18,0,15.23-.27,29.68.07,44.13.42,17.88-7.51,30.39-23.54,36.89Z"/>
  <path class="st0" d="M478.58,144.55c-46.81,1.42-56.02,32.62-58.6,70.27-2.57-37.45-10.92-68.73-57.36-69.34,45.21-10.24,50.91-17.32,57.19-70.15,4.1,35.67,10.95,69,58.77,69.22Z"/>
  <path class="st0" d="M572.83,121.5c-4.42-34.15-16.89-64.69-42.23-88.94C508.73,11.64,483.23-.1,451.99.36c-51.04.75-102.1.19-153.16.23-4.75,0-9.5.37-15.17.6v97.82c0,32.25.07,64.51-.02,96.76-.08,32.07.38,64.16-.3,96.52h-.46c.07.64.09,1.29.07,1.93h109.58s0-.01,0-.01c4.8,0,9.6,0,14.4,0h19.54s0,0,0,0c0,0,0,0,0,0h0s2.64-.44,6.81-1.26c.05,0,.09,0,.14.01.06-.03.12-.05.17-.08,7.95-1.58,21.19-4.52,32.57-8.51.91-.32,1.77-.63,2.61-.92,5.72-1.72,11.43-3.61,16.99-5.88,42.1-17.21,71.1-47.01,83.62-91.28,6.02-21.28,6.26-43,3.45-64.78ZM481.67,227.34c-5.63,10.97-13.06,21.37-21.29,30.59-18.65,20.88-42.73,26.51-69.61,20.72-19.92-4.29-35.83-15.17-46.07-30.91V12.41c3.6-.28,7.09-.78,10.57-.79,22.27-.07,44.56.3,66.82-.13,21.28-.42,37.44,8.63,49.94,25.03,11.99,15.72,18.4,33.91,22.8,52.9,1.08,4.66,1.74,9.41,2.94,15.97-.1,0-.19,0-.29,0,.15.96.23,1.93.28,2.91.83,2.78,1.27,5.69,1.18,8.61,4.29,39.4.36,76.1-17.28,110.43Z"/>
</svg>