<?xml version="1.0" encoding="UTF-8"?>
<svg id="Layer_1" xmlns="http://www.w3.org/2000/svg" version="1.1" viewBox="0 0 839.1 295.5">
  <!-- Generator: Adobe Illustrator 29.1.0, SVG Export Plug-In . SVG Version: 2.1.0 Build 142)  -->
  <defs>
    <style>
      .st0 {
        fill: #ffdfcf;
      }
    </style>
  </defs>
  <g>
    <g>
      <path class="st0" d="M778.3,291.7c0,0-.1,0-.2,0,0,1.1,0,2.2-.2,3.3,20.5,0,40.9,0,61.4,0-.3-1.2-.4-2.4-.4-3.6-.2,0-.4,0-.5-.1v-12.8c0-45,.4-90.1-.2-135.1-.2-15.3-1.7-30.9-5.2-45.8-9.6-40.8-31.8-72.4-71-90.3-9.6-4.4-19.6-7.5-30.5-7.5-43.4.2-86.8,0-130.3.1-3.5,0-6.9.7-11.7,1.1v292.8h-.3c0,.4.2.8.2,1.1,20.7,0,41.4,0,62.1,0-.2-.8-.3-1.7-.3-2.5-.2,0-.4,0-.6,0V108.3c24.6,14.5,51.9,17.9,77.2,27.1,5.3,1.9,10.6,4.2,15.6,6.7,22.8,11.3,35.2,29.6,35.5,55.1.4,30,.1,60,0,90.1,0,1.6-.5,3.1-.7,4.4ZM693.2,103.1c-11-2.5-22-5.4-32.5-9.6-16.3-6.5-24.4-19.1-24-37.1.3-14.5,0-29,0-44.3,4.1-.5,7.1-1.2,10.2-1.2,18.6-.1,37.3,0,55.9,0,24-.2,42,10.3,54.8,30.3,11.4,17.8,16.5,37.7,19.2,58.4,1.2,9.2,1.6,18.5,2.6,30.6-27.4-19.6-57.7-20.4-86.3-26.9Z"/>
      <path class="st0" d="M244,293.9h-.3V2.6c-4.6-.5-8-1.1-11.4-1.1-42.6,0-85.3,0-127.9-.1-10.7,0-20.5,3.1-29.9,7.4C36,26.5,14.1,58,4.7,98.6,1.3,113.4-.2,128.9-.4,144.2c-.7,44.8-.2,89.7-.2,134.5,0,3.2,0,6.4,0,9.5.6,2.2.5,4.7-.1,6.9,19.3,0,38.7,0,58,0,.2-1.6.4-3.2.7-4.7-.2-1-.4-2-.4-3,0-29.9-.4-59.8,0-89.6.4-25.4,12.5-43.6,34.9-54.9,5-2.5,10.1-4.7,15.4-6.7,24.9-9.2,51.7-12.6,75.8-27v183.3c-.2,0-.5,0-.8.1.2.8.3,1.7.3,2.5,20.3,0,40.6,0,60.9,0,0-.4,0-.8,0-1.1ZM173.8,94.4c-10.3,4.2-21.1,7.1-31.9,9.6-28.1,6.5-57.8,7.2-84.7,26.8,1-12,1.3-21.3,2.5-30.4,2.7-20.5,7.7-40.4,18.9-58.1,12.6-19.8,30.2-30.3,53.8-30.1,18.3.1,36.6,0,54.9,0,3,0,6,.7,10,1.2,0,15.2-.3,29.7,0,44.1.4,17.9-7.5,30.4-23.5,36.9Z"/>
      <path class="st0" d="M572.8,121.5c-4.4-34.1-16.9-64.7-42.2-88.9C508.7,11.6,483.2,0,452,.4c-51,.7-102.1.2-153.2.2-4.8,0-9.5.4-15.2.6v97.8c0,32.3,0,64.5,0,96.8,0,32.1.4,64.2-.3,96.5h-.5c0,.6,0,1.3,0,1.9,20.8,0,41.6,0,62.4,0,0-.6.1-1.2.2-1.8-.3,0-.5,0-.8,0v-14.4c13.1,4.6,25.6,9,38.2,13.4,1.9.2,3.5.8,4.8,1.6,1.8,0,3.4.5,4.7,1.2,11.3,0,22.6,0,33.9,0,1.5-.8,3.3-1.3,5.4-1.3s1,0,1.5,0c1.3-.6,2.7-1,4.4-1.1,1.3-.6,2.7-1,4.4-1.1,1.3-.6,2.7-1,4.4-1.1,12.7-3.5,26.3-6.8,39.1-12.1,42.1-17.2,71.1-47,83.6-91.3,6-21.3,6.3-43,3.4-64.8ZM481.7,227.3c-5.6,11-13.1,21.4-21.3,30.6-18.6,20.9-42.7,26.5-69.6,20.7-32.5-7-54.3-31.5-58.2-66-1.3-11.5-1.4-23.5.7-34.8,2.8-14.9-9.5-17.5.7-27.1-1.9-2,4.4-14.1,3.3-16.6-2.5-4,6-7.8,6.1-12.6,0-.7-.8-2-.8-2.7,0-1-.8-.3-.8-1.3-.1,0,3-1.7,2.9-1.6V12.4c3.6-.3,7.1-.8,10.6-.8,22.3,0,44.6.3,66.8-.1,21.3-.4,37.4,8.6,49.9,25,12,15.7,18.4,33.9,22.8,52.9,1.1,4.7,1.7,9.4,2.9,16,0,0-.2,0-.3,0,.2,1,.2,1.9.3,2.9.8,2.8,1.3,5.7,1.2,8.6,4.3,39.4.4,76.1-17.3,110.4Z"/>
    </g>
    <path class="st0" d="M283,294.2h143.5s-80.8-16-100.4-37.4c-19.7-21.4-43.1,37.4-43.1,37.4Z"/>
    <path class="st0" d="M426.5,294.2s22.1-3.7,39.7-9.8c56.8-19.9-38.2,4-38.2,4l-1.5,5.9Z"/>
  </g>
  <path class="st0" d="M478.6,144.5c-46.8,1.4-56,32.6-58.6,70.3-2.6-37.5-10.9-68.7-57.4-69.3,45.2-10.2,50.9-17.3,57.2-70.1,4.1,35.7,11,69,58.8,69.2Z"/>
  <rect class="st0" x="288.5" y="12.4" width="56.2" height="281.3"/>
</svg>